<svg width="38" height="40" viewBox="0 0 38 40" fill="none" xmlns="http://www.w3.org/2000/svg">
<g clip-path="url(#clip0_301_247)">
<path d="M0 1.20712C0 0.761667 0.538571 0.538582 0.853553 0.853564L7.85355 7.85356C7.94732 7.94733 8 8.07451 8 8.20712V31.7929C8 31.9255 7.94732 32.0527 7.85355 32.1464L0.853552 39.1464C0.53857 39.4614 0 39.2383 0 38.7929V1.20712Z" fill="white"/>
<path d="M3.1857 1.68506C2.83428 1.33383 3.15473 0.740592 3.64113 0.841926L37.602 7.9171C37.8338 7.9654 38 8.16976 38 8.4066V9.4466C38 9.74275 37.744 9.974 37.4494 9.94403L8.68058 7.01802C8.56609 7.00638 8.45912 6.95559 8.37772 6.87424L3.1857 1.68506Z" fill="white"/>
<path d="M3.1857 38.315C2.83428 38.6662 3.15473 39.2594 3.64113 39.1581L37.602 32.0829C37.8338 32.0346 38 31.8303 38 31.5934V30.5534C38 30.2573 37.744 30.026 37.4494 30.056L8.68058 32.982C8.56609 32.9936 8.45912 33.0444 8.37772 33.1258L3.1857 38.315Z" fill="white"/>
<path d="M18 16H14C12.8954 16 12 16.8954 12 18V22C12 23.1046 12.8954 24 14 24H18C19.1046 24 20 23.1046 20 22V18C20 16.8954 19.1046 16 18 16Z" fill="white"/>
<path d="M27.5 17H24.5C23.6716 17 23 17.6716 23 18.5V21.5C23 22.3284 23.6716 23 24.5 23H27.5C28.3284 23 29 22.3284 29 21.5V18.5C29 17.6716 28.3284 17 27.5 17Z" fill="white"/>
<path d="M34 18H32C31.4477 18 31 18.4477 31 19V21C31 21.5523 31.4477 22 32 22H34C34.5523 22 35 21.5523 35 21V19C35 18.4477 34.5523 18 34 18Z" fill="white"/>
</g>
<defs>
<clipPath id="clip0_301_247">
<rect width="38" height="40" fill="white"/>
</clipPath>
</defs>
</svg>
